# xmcd
#
# Track frame offsets:
#	150
#	13326
#	29496
#	49643
#	62448
#	75966
#	91054
#	106811
#	127817
#	139450
#	151795
#	168659
#	183536
#	198786
#	212183
#	225688
#
# Disc length: 3200 seconds
#
# Revision: 1
# Processed by: cddbd v1.5.2PL0 Copyright (c) Steve Scherf et al.
# Submitted via: audiograbber 1.83.01
#
DISCID=ca0c7e10
DTITLE=The Viking Truckers - Volvo Truck Tracks 1
DYEAR=2009
DGENRE=Country
TTITLE0=I´m rolling
TTITLE1=Twentyfirst century cowboy
TTITLE2=Six day´s on the road
TTITLE3=Truckstop mama
TTITLE4=To heaven in a truck
TTITLE5=Truckdriving gang
TTITLE6=I´m a Viking Trucker
TTITLE7=Golden guitar
TTITLE8=Overnight express
TTITLE9=Longlegged southern lady
TTITLE10=Eastbound and down
TTITLE11=Fivehundred miles
TTITLE12=Gearjammers inn
TTITLE13=Spacetruck
TTITLE14=Love on the road
TTITLE15=Papa oh mow mow
EXTD=
EXTT0=
EXTT1=
EXTT2=
EXTT3=
EXTT4=
EXTT5=
EXTT6=
EXTT7=
EXTT8=
EXTT9=
EXTT10=
EXTT11=
EXTT12=
EXTT13=
EXTT14=
EXTT15=
PLAYORDER=
